<?xml version="1.0" standalone="no"?>
<!DOCTYPE svg PUBLIC "-//W3C//DTD SVG 20010904//EN"
 "http://www.w3.org/TR/2001/REC-SVG-20010904/DTD/svg10.dtd">
<svg version="1.0" xmlns="http://www.w3.org/2000/svg"
 width="384.000000pt" height="384.000000pt" viewBox="0 0 384.000000 384.000000"
 preserveAspectRatio="xMidYMid meet">

<g transform="translate(0.000000,384.000000) scale(0.100000,-0.100000)"
fill="#000000" stroke="none">
<path d="M415 3671 c-181 -44 -293 -244 -240 -426 24 -86 41 -115 159 -274 58
-78 106 -149 106 -157 0 -8 20 -74 44 -146 47 -144 93 -244 164 -353 l45 -70
-24 -140 c-32 -189 -33 -390 -1 -520 33 -130 99 -260 174 -341 75 -79 140
-115 223 -121 88 -7 140 23 180 103 l29 60 101 -105 c121 -126 272 -241 416
-315 58 -31 109 -56 113 -56 3 0 -37 54 -90 120 -280 353 -492 692 -570 915
-15 44 -29 82 -31 84 -9 12 -111 -141 -164 -247 -26 -52 -50 -89 -53 -83 -13
21 -36 164 -36 223 0 72 23 231 54 380 l22 107 -78 118 c-101 150 -137 226
-186 388 -49 162 -60 185 -173 336 -93 124 -125 181 -113 201 18 29 193 -24
341 -103 80 -43 99 -49 151 -49 96 0 271 -21 352 -41 157 -40 375 -155 506
-267 273 -232 563 -785 691 -1321 l18 -73 75 -28 c150 -54 308 -146 428 -248
29 -24 50 -48 45 -51 -4 -4 -35 -15 -68 -25 -107 -32 -305 -153 -305 -187 0
-17 155 -172 235 -234 44 -34 148 -107 230 -162 184 -123 284 -201 398 -311
48 -47 87 -82 87 -79 0 11 -97 203 -148 292 -50 88 -192 306 -241 372 l-32 41
53 16 c29 9 123 30 208 48 85 17 156 32 158 33 6 5 -174 247 -242 327 -121
140 -311 285 -505 386 l-105 54 -34 112 c-142 470 -390 929 -646 1195 -218
226 -575 409 -881 450 -38 5 -113 13 -165 17 -83 6 -105 12 -172 45 -196 98
-383 139 -503 110z"/>
<path d="M1065 3033 c-70 -14 -73 -1 42 -158 58 -80 110 -145 115 -145 12 0
44 75 53 121 9 47 -18 102 -74 152 -41 37 -72 44 -136 30z"/>
</g>
</svg>
