<?xml version="1.0" standalone="no"?>
<!DOCTYPE svg PUBLIC "-//W3C//DTD SVG 20010904//EN"
 "http://www.w3.org/TR/2001/REC-SVG-20010904/DTD/svg10.dtd">
<svg version="1.0" xmlns="http://www.w3.org/2000/svg"
 width="512.000000pt" height="512.000000pt" viewBox="0 0 512.000000 512.000000"
 preserveAspectRatio="xMidYMid meet">

<g transform="translate(0.000000,512.000000) scale(0.100000,-0.100000)"
fill="#000000" stroke="none">
<path d="M3160 4828 c0 -2 43 -68 96 -148 113 -172 264 -471 329 -655 61 -170
109 -359 136 -536 26 -173 32 -506 10 -659 -30 -220 -91 -446 -117 -436 -30
12 -369 239 -544 365 -618 446 -1141 884 -1720 1440 l-224 216 78 -115 c363
-531 853 -1142 1330 -1659 l41 -44 -40 23 c-84 48 -388 253 -577 388 -478 341
-980 736 -1322 1041 -137 122 -143 119 -41 -24 127 -177 641 -813 869 -1075
461 -530 959 -1014 1384 -1344 34 -27 62 -52 62 -57 0 -15 -237 -128 -350
-167 -583 -200 -1242 -148 -1927 153 -174 76 -300 147 -483 271 -77 51 -140
91 -140 88 0 -4 32 -52 72 -108 344 -485 782 -868 1279 -1121 520 -264 1045
-386 1538 -354 370 23 673 115 1001 302 59 33 199 82 294 101 107 23 274 21
370 -4 173 -44 329 -167 436 -342 29 -49 57 -88 61 -88 37 0 64 142 56 295
-18 344 -157 701 -397 1020 -30 40 -30 41 -16 83 48 134 81 433 73 638 -35
826 -486 1650 -1225 2242 -116 93 -392 283 -392 270z"/>
</g>
</svg>
